<svg width="52" height="52" viewBox="0 0 52 52" fill="none" xmlns="http://www.w3.org/2000/svg">
<rect x="26" y="42.25" width="3.25" height="3.25" fill="#F0F8FF"/>
<rect x="39" y="16.25" width="3.25" height="3.25" fill="#F0F8FF"/>
<rect x="13" y="16.25" width="3.25" height="3.25" fill="#F0F8FF"/>
<rect x="26" y="48.75" width="3.25" height="3.25" fill="#F0F8FF"/>
<rect y="9.75" width="3.25" height="3.25" fill="#F0F8FF"/>
<rect x="39" y="48.75" width="3.25" height="3.25" fill="#F0F8FF"/>
<rect x="39" y="9.75" width="3.25" height="3.25" fill="#F0F8FF"/>
<rect x="13" y="35.75" width="3.25" height="3.25" fill="#F0F8FF"/>
<rect x="13" y="9.75" width="3.25" height="3.25" fill="#F0F8FF"/>
<rect x="32.5" y="42.25" width="3.25" height="3.25" fill="#F0F8FF"/>
<rect x="6.5" y="29.25" width="3.25" height="3.25" fill="#F0F8FF"/>
<rect x="45.5" y="16.25" width="3.25" height="3.25" fill="#F0F8FF"/>
<rect x="45.5" y="3.25" width="3.25" height="3.25" fill="#F0F8FF"/>
<rect x="19.5" y="3.25" width="3.25" height="3.25" fill="#F0F8FF"/>
<rect x="32.5" y="22.75" width="3.25" height="3.25" fill="#F0F8FF"/>
<rect x="32.5" y="9.75" width="3.25" height="3.25" fill="#F0F8FF"/>
<rect x="6.5" y="9.75" width="3.25" height="3.25" fill="#F0F8FF"/>
<rect x="45.5" y="22.75" width="3.25" height="3.25" fill="#F0F8FF"/>
<rect x="19.5" y="9.75" width="3.25" height="3.25" fill="#F0F8FF"/>
<rect x="26" y="6.5" width="3.25" height="3.25" fill="#F0F8FF"/>
<rect y="6.5" width="3.25" height="3.25" fill="#F0F8FF"/>
<rect x="13" y="45.5" width="3.25" height="3.25" fill="#F0F8FF"/>
<rect x="39" y="32.5" width="3.25" height="3.25" fill="#F0F8FF"/>
<rect x="39" y="6.5" width="3.25" height="3.25" fill="#F0F8FF"/>
<rect x="13" y="6.5" width="3.25" height="3.25" fill="#F0F8FF"/>
<rect x="26" y="39" width="3.25" height="3.25" fill="#F0F8FF"/>
<rect y="13" width="3.25" height="3.25" fill="#F0F8FF"/>
<rect x="39" width="3.25" height="3.25" fill="#F0F8FF"/>
<rect x="13" width="3.25" height="3.25" fill="#F0F8FF"/>
<rect x="39" y="39" width="3.25" height="3.25" fill="#F0F8FF"/>
<rect x="39" y="13" width="3.25" height="3.25" fill="#F0F8FF"/>
<rect x="13" y="39" width="3.25" height="3.25" fill="#F0F8FF"/>
<rect x="13" y="13" width="3.25" height="3.25" fill="#F0F8FF"/>
<rect x="6.5" y="19.5" width="3.25" height="3.25" fill="#F0F8FF"/>
<rect x="32.5" y="6.5" width="3.25" height="3.25" fill="#F0F8FF"/>
<rect x="6.5" y="6.5" width="3.25" height="3.25" fill="#F0F8FF"/>
<rect x="19.5" y="45.5" width="3.25" height="3.25" fill="#F0F8FF"/>
<rect x="32.5" y="26" width="3.25" height="3.25" fill="#F0F8FF"/>
<rect x="32.5" width="3.25" height="3.25" fill="#F0F8FF"/>
<rect x="6.5" width="3.25" height="3.25" fill="#F0F8FF"/>
<rect x="32.5" y="13" width="3.25" height="3.25" fill="#F0F8FF"/>
<rect x="6.5" y="39" width="3.25" height="3.25" fill="#F0F8FF"/>
<rect x="6.5" y="13" width="3.25" height="3.25" fill="#F0F8FF"/>
<rect x="45.5" y="26" width="3.25" height="3.25" fill="#F0F8FF"/>
<rect x="3.25" y="16.25" width="3.25" height="3.25" fill="#F0F8FF"/>
<rect x="29.25" y="3.25" width="3.25" height="3.25" fill="#F0F8FF"/>
<rect x="16.25" y="42.25" width="3.25" height="3.25" fill="#F0F8FF"/>
<rect x="42.25" y="29.25" width="3.25" height="3.25" fill="#F0F8FF"/>
<rect x="3.25" y="22.75" width="3.25" height="3.25" fill="#F0F8FF"/>
<rect x="29.25" y="9.75" width="3.25" height="3.25" fill="#F0F8FF"/>
<rect x="16.25" y="22.75" width="3.25" height="3.25" fill="#F0F8FF"/>
<rect x="42.25" y="9.75" width="3.25" height="3.25" fill="#F0F8FF"/>
<rect x="16.25" y="9.75" width="3.25" height="3.25" fill="#F0F8FF"/>
<rect x="35.75" y="16.25" width="3.25" height="3.25" fill="#F0F8FF"/>
<rect x="9.75" y="16.25" width="3.25" height="3.25" fill="#F0F8FF"/>
<rect x="22.75" y="42.25" width="3.25" height="3.25" fill="#F0F8FF"/>
<rect x="9.75" y="48.75" width="3.25" height="3.25" fill="#F0F8FF"/>
<rect x="35.75" y="35.75" width="3.25" height="3.25" fill="#F0F8FF"/>
<rect x="35.75" y="9.75" width="3.25" height="3.25" fill="#F0F8FF"/>
<rect x="9.75" y="9.75" width="3.25" height="3.25" fill="#F0F8FF"/>
<rect x="22.75" y="48.75" width="3.25" height="3.25" fill="#F0F8FF"/>
<rect x="48.75" y="9.75" width="3.25" height="3.25" fill="#F0F8FF"/>
<rect x="29.25" y="45.5" width="3.25" height="3.25" fill="#F0F8FF"/>
<rect x="42.25" y="19.5" width="3.25" height="3.25" fill="#F0F8FF"/>
<rect x="42.25" y="6.5" width="3.25" height="3.25" fill="#F0F8FF"/>
<rect x="16.25" y="6.5" width="3.25" height="3.25" fill="#F0F8FF"/>
<rect x="3.25" y="26" width="3.25" height="3.25" fill="#F0F8FF"/>
<rect x="42.25" width="3.25" height="3.25" fill="#F0F8FF"/>
<rect x="16.25" y="26" width="3.25" height="3.25" fill="#F0F8FF"/>
<rect x="16.25" width="3.25" height="3.25" fill="#F0F8FF"/>
<rect x="42.25" y="39" width="3.25" height="3.25" fill="#F0F8FF"/>
<rect x="42.25" y="13" width="3.25" height="3.25" fill="#F0F8FF"/>
<rect x="16.25" y="13" width="3.25" height="3.25" fill="#F0F8FF"/>
<rect x="35.75" y="45.5" width="3.25" height="3.25" fill="#F0F8FF"/>
<rect x="35.75" y="6.5" width="3.25" height="3.25" fill="#F0F8FF"/>
<rect x="9.75" y="32.5" width="3.25" height="3.25" fill="#F0F8FF"/>
<rect x="9.75" y="6.5" width="3.25" height="3.25" fill="#F0F8FF"/>
<rect x="48.75" y="6.5" width="3.25" height="3.25" fill="#F0F8FF"/>
<rect x="22.75" y="6.5" width="3.25" height="3.25" fill="#F0F8FF"/>
<rect x="35.75" width="3.25" height="3.25" fill="#F0F8FF"/>
<rect x="9.75" width="3.25" height="3.25" fill="#F0F8FF"/>
<rect x="35.75" y="39" width="3.25" height="3.25" fill="#F0F8FF"/>
<rect x="35.75" y="13" width="3.25" height="3.25" fill="#F0F8FF"/>
<rect x="9.75" y="39" width="3.25" height="3.25" fill="#F0F8FF"/>
<rect x="9.75" y="13" width="3.25" height="3.25" fill="#F0F8FF"/>
<rect x="48.75" y="13" width="3.25" height="3.25" fill="#F0F8FF"/>
<rect x="22.75" y="39" width="3.25" height="3.25" fill="#F0F8FF"/>
<rect x="3.25" y="3.25" width="3.25" height="3.25" fill="#F0F8FF"/>
</svg>
