<svg width="25" height="25" viewBox="0 0 25 25" fill="none" xmlns="http://www.w3.org/2000/svg">
<path d="M15.6243 2.08325H6.24935C5.69681 2.08325 5.16691 2.30275 4.77621 2.69345C4.38551 3.08415 4.16602 3.61405 4.16602 4.16659V20.8333C4.16602 21.3858 4.38551 21.9157 4.77621 22.3064C5.16691 22.6971 5.69681 22.9166 6.24935 22.9166H18.7493C19.3019 22.9166 19.8318 22.6971 20.2225 22.3064C20.6132 21.9157 20.8327 21.3858 20.8327 20.8333V7.29159L15.6243 2.08325Z" stroke="#F0F8FF" stroke-width="2.08333" stroke-linecap="round" stroke-linejoin="round"/>
<path d="M14.584 2.08325V6.24992C14.584 6.80245 14.8035 7.33236 15.1942 7.72306C15.5849 8.11376 16.1148 8.33325 16.6673 8.33325H20.834" stroke="#F0F8FF" stroke-width="2.08333" stroke-linecap="round" stroke-linejoin="round"/>
<path d="M10.4173 9.375H8.33398" stroke="#F0F8FF" stroke-width="2.08333" stroke-linecap="round" stroke-linejoin="round"/>
<path d="M16.6673 13.5417H8.33398" stroke="#F0F8FF" stroke-width="2.08333" stroke-linecap="round" stroke-linejoin="round"/>
<path d="M16.6673 17.7083H8.33398" stroke="#F0F8FF" stroke-width="2.08333" stroke-linecap="round" stroke-linejoin="round"/>
</svg>
