<svg width="25" height="25" viewBox="0 0 25 25" fill="none" xmlns="http://www.w3.org/2000/svg">
<path d="M20.8327 10.4166C20.8327 15.6176 15.0629 21.0343 13.1254 22.7072C12.9449 22.8429 12.7252 22.9163 12.4993 22.9163C12.2735 22.9163 12.0538 22.8429 11.8733 22.7072C9.93581 21.0343 4.16602 15.6176 4.16602 10.4166C4.16602 8.20645 5.04399 6.08683 6.60679 4.52403C8.1696 2.96123 10.2892 2.08325 12.4993 2.08325C14.7095 2.08325 16.8291 2.96123 18.3919 4.52403C19.9547 6.08683 20.8327 8.20645 20.8327 10.4166Z" stroke="#F0F8FF" stroke-width="2.08333" stroke-linecap="round" stroke-linejoin="round"/>
<path d="M12.5 13.5417C14.2259 13.5417 15.625 12.1426 15.625 10.4167C15.625 8.69086 14.2259 7.29175 12.5 7.29175C10.7741 7.29175 9.375 8.69086 9.375 10.4167C9.375 12.1426 10.7741 13.5417 12.5 13.5417Z" stroke="#F0F8FF" stroke-width="2.08333" stroke-linecap="round" stroke-linejoin="round"/>
</svg>
