<svg width="23" height="22" viewBox="0 0 23 22" fill="none" xmlns="http://www.w3.org/2000/svg">
<path d="M9.37495 18.7498C9.37486 18.9434 9.42871 19.1332 9.53046 19.2979C9.63221 19.4625 9.77783 19.5956 9.95099 19.6821L12.0343 20.7238C12.1932 20.8032 12.3697 20.8406 12.5471 20.8326C12.7245 20.8246 12.8969 20.7713 13.0479 20.6779C13.1989 20.5845 13.3236 20.454 13.41 20.2989C13.4964 20.1437 13.5417 19.9691 13.5416 19.7915V12.4998C13.5419 11.9836 13.7338 11.4858 14.0802 11.103L21.6041 2.78109C21.739 2.63167 21.8276 2.44638 21.8594 2.24763C21.8912 2.04888 21.8647 1.84518 21.7832 1.66117C21.7016 1.47715 21.5685 1.32069 21.4 1.21072C21.2314 1.10075 21.0346 1.04198 20.8333 1.0415H2.08328C1.88183 1.04158 1.68472 1.10006 1.51584 1.20988C1.34695 1.31969 1.21352 1.47612 1.13173 1.66022C1.04993 1.84431 1.02327 2.04818 1.05498 2.24712C1.08668 2.44606 1.17539 2.63154 1.31037 2.78109L8.83641 11.103C9.1828 11.4858 9.37472 11.9836 9.37495 12.4998V18.7498Z" stroke="black" stroke-width="2.08333" stroke-linecap="round" stroke-linejoin="round"/>
</svg>
