<svg width="25" height="25" viewBox="0 0 25 25" fill="none" xmlns="http://www.w3.org/2000/svg">
<path d="M13.1111 2.69367C12.7205 2.30294 12.1906 2.08337 11.6382 2.08325H4.16732C3.61478 2.08325 3.08488 2.30275 2.69418 2.69345C2.30348 3.08415 2.08398 3.61405 2.08398 4.16659V11.6374C2.0841 12.1899 2.30367 12.7197 2.6944 13.1103L11.7611 22.177C12.2345 22.6475 12.8749 22.9115 13.5423 22.9115C14.2098 22.9115 14.8501 22.6475 15.3236 22.177L22.1777 15.3228C22.6482 14.8494 22.9122 14.209 22.9122 13.5416C22.9122 12.8741 22.6482 12.2338 22.1777 11.7603L13.1111 2.69367Z" stroke="#F0F8FF" stroke-width="2.08333" stroke-linecap="round" stroke-linejoin="round"/>
<path d="M7.81185 8.33341C8.0995 8.33341 8.33268 8.10023 8.33268 7.81258C8.33268 7.52493 8.0995 7.29175 7.81185 7.29175C7.5242 7.29175 7.29102 7.52493 7.29102 7.81258C7.29102 8.10023 7.5242 8.33341 7.81185 8.33341Z" fill="#F0F8FF" stroke="#F0F8FF" stroke-width="2.08333" stroke-linecap="round" stroke-linejoin="round"/>
</svg>
